<?xml version="1.0" encoding="UTF-8"?>
<svg width="18px" height="18px" viewBox="0 0 18 18" version="1.1" xmlns="http://www.w3.org/2000/svg" xmlns:xlink="http://www.w3.org/1999/xlink">
    <!-- Generator: Sketch 45.1 (43504) - http://www.bohemiancoding.com/sketch -->
    <title></title>
    <desc>Created with Sketch.</desc>
    <defs></defs>
    <g id="New-design" stroke="none" stroke-width="1" fill="none" fill-rule="evenodd">
        <g id="Client-list" transform="translate(-67.000000, -171.000000)" fill="#FF3D4A">
            <g id="Group-2" transform="translate(64.000000, 168.500000)">
                <path d="M12.0714388,3.28569555 C16.8035873,3.28569555 20.6428776,7.12498584 20.6428776,11.8571343 C20.6428776,16.5892828 16.8035873,20.4285731 12.0714388,20.4285731 C7.33929029,20.4285731 3.5,16.5892828 3.5,11.8571343 C3.5,7.12498584 7.33929029,3.28569555 12.0714388,3.28569555 Z M13.5000119,17.2031229 L13.5000119,15.0825846 C13.5000119,14.8816915 13.3437617,14.7142806 13.1540294,14.7142806 L11.0111697,14.7142806 C10.8102766,14.7142806 10.6428657,14.8816915 10.6428657,15.0825846 L10.6428657,17.2031229 C10.6428657,17.404016 10.8102766,17.5714269 11.0111697,17.5714269 L13.1540294,17.5714269 C13.3437617,17.5714269 13.5000119,17.404016 13.5000119,17.2031229 Z M13.4776905,13.3638326 L13.6785836,6.43302073 C13.6785836,6.35489564 13.6451014,6.27677055 13.5669763,6.23212764 C13.5000119,6.176324 13.3995654,6.14284182 13.2991188,6.14284182 L10.8437588,6.14284182 C10.7433122,6.14284182 10.6428657,6.176324 10.5759013,6.23212764 C10.4977762,6.27677055 10.464294,6.35489564 10.464294,6.43302073 L10.6540264,13.3638326 C10.6540264,13.5200828 10.8214373,13.6428508 11.0334911,13.6428508 L13.0982257,13.6428508 C13.2991188,13.6428508 13.4665297,13.5200828 13.4776905,13.3638326 Z" id=""></path>
            </g>
        </g>
    </g>
</svg>