<?xml version="1.0" encoding="UTF-8"?>
<svg width="20px" height="18px" viewBox="0 0 20 18" version="1.1" xmlns="http://www.w3.org/2000/svg" xmlns:xlink="http://www.w3.org/1999/xlink">
    <!-- Generator: Sketch 44.1 (41455) - http://www.bohemiancoding.com/sketch -->
    <title>heart</title>
    <desc>Created with Sketch.</desc>
    <defs></defs>
    <g id="New-design" stroke="none" stroke-width="1" fill="none" fill-rule="evenodd">
        <g id="Client-profile" transform="translate(-20.000000, -379.000000)" fill="#29EB84">
            <path d="M34.2857313,389.285707 L37.6897532,389.285707 C37.5558245,389.430797 37.4665387,389.508922 37.4442172,389.531243 L30.4910839,396.22768 C30.3571552,396.361609 30.1785836,396.428573 30.0000119,396.428573 C29.8214403,396.428573 29.6428686,396.361609 29.5089399,396.22768 L22.5446459,389.508922 C22.5223244,389.497761 22.4330386,389.419636 22.3102706,389.285707 L26.4285791,389.285707 C26.7522402,389.285707 27.0424191,389.062493 27.1205442,388.749993 L27.9017951,385.613828 L30.0223334,393.058033 C30.1116192,393.359373 30.3906374,393.571427 30.7142985,393.571427 C31.0267989,393.571427 31.305817,393.359373 31.3951029,393.058033 L33.0245691,387.645081 L33.6495698,388.895082 C33.7723378,389.129457 34.0178739,389.285707 34.2857313,389.285707 Z M40.0000238,384.508916 C40.0000238,385.7924 39.4419875,386.964276 38.8504689,387.857134 L34.7321604,387.857134 L33.4933197,385.390614 C33.3705517,385.133917 33.0803727,384.977667 32.8013545,384.999988 C32.5000149,385.03347 32.2544789,385.223203 32.1763538,385.513382 L30.7366199,390.312494 L28.5491173,382.656235 C28.4598315,382.354896 28.1808133,382.142842 27.8459915,382.142842 C27.5223304,382.142842 27.2433122,382.366056 27.1651871,382.678557 L25.8705427,387.857134 L21.1495549,387.857134 C20.5580364,386.964276 20,385.7924 20,384.508916 C20,381.238823 21.9977702,379.285696 25.3348278,379.285696 C27.2879551,379.285696 29.1183144,380.825876 30.0000119,381.696413 C30.8817094,380.825876 32.7120687,379.285696 34.6651961,379.285696 C38.0022536,379.285696 40.0000238,381.238823 40.0000238,384.508916 Z" id="heart"></path>
        </g>
    </g>
</svg>