<?xml version="1.0" encoding="UTF-8"?>
<svg width="12px" height="20px" viewBox="0 0 12 20" version="1.1" xmlns="http://www.w3.org/2000/svg" xmlns:xlink="http://www.w3.org/1999/xlink">
    <!-- Generator: Sketch 44.1 (41455) - http://www.bohemiancoding.com/sketch -->
    <title>person</title>
    <desc>Created with Sketch.</desc>
    <defs></defs>
    <g id="New-design" stroke="none" stroke-width="1" fill="none" fill-rule="evenodd">
        <g id="Client-profile" transform="translate(-171.000000, -378.000000)" fill="#29EB84">
            <path d="M182.428585,385.714275 C182.428585,384.531238 181.468762,383.571415 180.285725,383.571415 L173.14286,383.571415 C171.959823,383.571415 171,384.531238 171,385.714275 L171,390.357137 C171,390.948656 171.479911,391.428567 172.07143,391.428567 C172.662948,391.428567 173.14286,390.948656 173.14286,390.357137 L173.14286,386.428561 L173.857146,386.428561 L173.857146,396.607145 C173.857146,397.29911 174.415183,397.857146 175.107148,397.857146 C175.799113,397.857146 176.357149,397.29911 176.357149,396.607145 L176.357149,391.428567 L177.071436,391.428567 L177.071436,396.607145 C177.071436,397.29911 177.629472,397.857146 178.321437,397.857146 C179.013402,397.857146 179.571439,397.29911 179.571439,396.607145 L179.571439,386.428561 L180.285725,386.428561 L180.285725,390.357137 C180.285725,390.948656 180.765637,391.428567 181.357155,391.428567 C181.948674,391.428567 182.428585,390.948656 182.428585,390.357137 L182.428585,385.714275 Z M179.214296,380.714269 C179.214296,379.330338 178.098223,378.214266 176.714293,378.214266 C175.330362,378.214266 174.21429,379.330338 174.21429,380.714269 C174.21429,382.098199 175.330362,383.214272 176.714293,383.214272 C178.098223,383.214272 179.214296,382.098199 179.214296,380.714269 Z" id="person"></path>
        </g>
    </g>
</svg>