<?xml version="1.0" encoding="UTF-8"?>
<svg width="28px" height="29px" viewBox="0 0 28 29" version="1.1" xmlns="http://www.w3.org/2000/svg" xmlns:xlink="http://www.w3.org/1999/xlink">
    <!-- Generator: Sketch 44.1 (41455) - http://www.bohemiancoding.com/sketch -->
    <title></title>
    <desc>Created with Sketch.</desc>
    <defs></defs>
    <g id="New-design" stroke="none" stroke-width="1" fill="none" fill-rule="evenodd">
        <g id="Client-list" transform="translate(-322.000000, -61.000000)" fill="#29EB84">
            <path d="M341.357166,73.2142717 C341.357166,69.0792221 337.992206,65.7142627 333.857157,65.7142627 C329.722107,65.7142627 326.357148,69.0792221 326.357148,73.2142717 C326.357148,77.3493212 329.722107,80.7142806 333.857157,80.7142806 C337.992206,80.7142806 341.357166,77.3493212 341.357166,73.2142717 Z M349.928605,87.1428597 C349.928605,88.3147361 348.957621,89.2857194 347.785745,89.2857194 C347.216548,89.2857194 346.664092,89.0513441 346.279047,88.6495579 L340.536852,82.9241047 C338.578145,84.2801331 336.234392,85 333.857157,85 C327.344872,85 322.071429,79.7265562 322.071429,73.2142717 C322.071429,66.7019871 327.344872,61.4285433 333.857157,61.4285433 C340.369441,61.4285433 345.642885,66.7019871 345.642885,73.2142717 C345.642885,75.5915066 344.923018,77.9352594 343.56699,79.8939671 L349.309184,85.6361615 C349.694229,86.0212066 349.928605,86.5736626 349.928605,87.1428597 Z" id=""></path>
        </g>
    </g>
</svg>