<?xml version="1.0" encoding="UTF-8"?>
<svg width="60px" height="61px" viewBox="0 0 60 61" version="1.1" xmlns="http://www.w3.org/2000/svg" xmlns:xlink="http://www.w3.org/1999/xlink">
    <!-- Generator: Sketch 44.1 (41455) - http://www.bohemiancoding.com/sketch -->
    <title></title>
    <desc>Created with Sketch.</desc>
    <defs></defs>
    <g id="New-design" stroke="none" stroke-width="1" fill="none" fill-rule="evenodd">
        <g id="New-diet-modal" transform="translate(-40.000000, -69.000000)" fill="#29EB84">
            <g id="Group" transform="translate(10.000000, 40.000000)">
                <path d="M89.0625704,29.9396713 C88.7277486,29.705296 88.2924802,29.5713673 87.8572118,29.5713673 C87.4889078,29.5713673 87.1206038,29.6718138 86.785782,29.8727069 L31.0714298,62.0156024 C30.368304,62.4173886 29.9665178,63.1874788 30,63.9910512 C30.0669644,64.8281057 30.5691971,65.5312316 31.3392873,65.8325712 L44.5647495,71.2566848 L80.3572029,40.2856658 L51.428597,75.7432973 L51.428597,87.4285791 C51.428597,88.332598 51.9977941,89.1361704 52.8348486,89.4375101 C53.0692239,89.5379566 53.3370814,89.5714388 53.5714567,89.5714388 C54.2076181,89.5714388 54.8102974,89.3035813 55.2120836,88.8013486 L63.3147719,78.9241047 L78.4822007,85.1183085 C78.7500581,85.218755 79.0179156,85.2857194 79.285773,85.2857194 C79.654077,85.2857194 80.0223811,85.1852728 80.3237207,85.0178619 C80.8929178,84.6830401 81.294704,84.1473252 81.3951506,83.5111637 L89.9665893,32.082531 C90.1005181,31.2454764 89.7656962,30.441904 89.0625704,29.9396713 Z" id=""></path>
            </g>
        </g>
    </g>
</svg>